<svg width="901" height="680" viewBox="0 0 901 680" fill="none" xmlns="http://www.w3.org/2000/svg">
<path d="M611.3 550.076C593.21 550.136 575.94 543.406 563.21 530.656L530.22 497.616C522.24 489.626 512.33 482.666 500.29 482.666L397.32 482.706C387.32 482.706 377.15 487.706 370.33 494.476L335.13 529.396C321.66 542.756 303.64 550.436 284.47 550.076C257.61 549.576 234.77 533.186 223.97 508.876C216.74 492.606 214.89 475.376 217.28 457.496C222.06 421.716 240.4 375.296 258.47 343.746C266.07 330.476 275.94 319.126 288.94 311.306C309.23 299.096 332.93 297.536 354.19 307.726L381.15 320.656C410.26 334.616 462.52 334.886 494.54 327.756C510.17 324.276 523.63 317.296 537.79 310.086C551.96 302.876 567.25 299.146 583.13 301.876C601.3 304.996 617.04 315.176 628.51 329.336C644.45 349.016 657.7 381.046 666.31 405.626C672.31 422.746 676.85 439.546 679.22 457.576C681.72 476.536 679.49 495.226 671.04 512.196C659.59 535.196 637.16 549.986 611.3 550.066V550.076ZM613.87 531.736C631.36 530.686 645.41 520.426 653.81 506.006C667.36 482.766 662.76 453.506 655.1 427.696C647.44 401.886 636.62 375.506 622.53 351.516C606.28 323.846 577.51 311.036 548.3 325.396L536.06 331.416C517.19 340.696 497.88 347.126 476.73 349.076C457.29 350.866 438.36 351.026 418.96 348.966C399.46 346.896 381.77 341.076 364.19 332.786L343.91 323.226C325.78 315.906 306.29 319.426 291.37 331.626C283.49 338.066 277.59 345.806 272.53 354.886C257.48 381.926 246.09 410.286 238.15 440.296C231.44 465.686 231.03 492.646 247.52 513.236C267.18 537.776 301.49 537.346 322.88 516.116L358.07 481.186C367.97 471.366 381.86 464.646 396.35 464.636L501.33 464.576C516.42 464.576 530.07 472.176 540.39 482.506L574.85 517.006C584.94 527.106 598.78 532.636 613.88 531.726L613.87 531.736Z" fill="white"/>
<path d="M488.89 516.236L448.92 547.636L408.75 516.236L448.78 533.326L488.89 516.236Z" fill="#FE8602"/>
<path d="M544.09 275.286C504.42 298.186 449.12 301.446 404.47 293.436C352.44 284.106 308.79 254.866 298.91 200.946C291.5 160.526 303.39 119.636 330.89 89.0263C396.24 16.2663 518.13 20.4563 575.13 100.676C599.03 134.316 606.06 177.166 593.19 216.416C584.85 241.836 567.06 262.016 544.09 275.276V275.286ZM360.26 114.416C386.38 87.4263 420.59 71.1463 458.61 67.2863C430.12 62.7463 401.17 68.3163 375.56 81.6563C340.61 99.8663 318.19 134.046 316.05 173.576C315.51 195.256 321.3 215.446 334.22 233.716C318.82 190.806 329.02 148.296 360.26 114.416ZM530.66 158.746C534.37 142.936 538.37 142.356 552.74 138.986C547.18 137.356 541.34 136.756 537.45 133.496C532.57 129.396 532.31 122.726 530.71 117.206C528.92 122.816 528.54 129.126 524.63 132.866C520.19 137.116 513.24 137.496 507.95 139.076C524.06 142.216 526.08 143.726 530.65 158.746H530.66Z" fill="black"/>
<path d="M613.87 531.736C598.77 532.646 584.94 527.116 574.84 517.016L540.38 482.516C530.07 472.196 516.41 464.586 501.32 464.586L396.34 464.646C381.85 464.646 367.96 471.366 358.06 481.196L322.87 516.126C301.48 537.356 267.17 537.786 247.51 513.246C231.02 492.656 231.43 465.696 238.14 440.306C246.07 410.296 257.46 381.936 272.52 354.896C277.57 345.816 283.48 338.076 291.36 331.636C306.28 319.436 325.77 315.916 343.9 323.236L364.18 332.796C381.76 341.086 399.45 346.906 418.95 348.976C438.35 351.036 457.28 350.886 476.72 349.086C497.87 347.136 517.18 340.706 536.05 331.426L548.29 325.406C577.5 311.046 606.27 323.856 622.52 351.526C636.61 375.516 647.14 400.936 655.09 427.706C663.04 454.476 667.36 482.766 653.8 506.016C645.39 520.436 631.34 530.696 613.86 531.746L613.87 531.736ZM561.28 362.056C553.17 364.766 550.32 373.426 552.97 380.226C555.73 387.296 563.21 390.356 570.26 388.096C577.66 385.726 581.13 377.846 578.88 370.586C576.7 363.566 569.21 359.416 561.27 362.066L561.28 362.056ZM341.31 445.636V417.916L368.51 417.866L368.49 394.076L341.37 394.056L341.23 365.986L317.76 365.856V394.066L290.48 394.236V417.836L317.74 417.986L317.83 445.686L341.31 445.626V445.636ZM468.47 377.906C471.17 377.906 473.35 375.616 473.03 373.146C472.82 371.526 470.46 369.796 468.43 369.796L428.35 369.686C426.18 369.686 423.86 372.206 424.04 374.056C424.18 375.456 426.59 377.856 428.16 377.856L468.48 377.906H468.47ZM530.82 418.726C537.46 420.386 543.4 417.866 546.45 413.146C549.61 408.266 549.67 401.846 546.01 396.856C542.35 391.866 535.65 390.176 529.88 392.426C524.53 394.516 520.89 399.816 520.98 406.046C521.05 411.416 524.37 417.116 530.81 418.726H530.82ZM593.25 391.936C585.03 393.876 581.02 402.256 582.91 409.256C584.89 416.586 592.2 420.286 599.13 418.966C607.17 417.426 611.33 409.946 609.91 402.566C608.49 395.186 601.51 389.996 593.26 391.936H593.25ZM577.55 443.446C581.45 436.336 579.67 428.716 574 424.506C568.46 420.396 560.69 420.986 556.03 425.866C551 431.146 550.5 438.726 555.16 444.856C557.77 448.296 562.41 450.056 566.74 449.776C570.61 449.516 575.33 447.476 577.55 443.436V443.446Z" fill="black"/>
<path d="M360.26 114.416C329.02 148.296 318.82 190.806 334.22 233.716C321.29 215.446 315.51 195.256 316.05 173.576C318.19 134.036 340.61 99.8661 375.56 81.6561C401.17 68.3161 430.12 62.7461 458.61 67.2861C420.59 71.1461 386.38 87.4261 360.26 114.416Z" fill="white"/>
<path d="M530.72 117.206C532.32 122.726 532.58 129.406 537.46 133.496C541.35 136.766 547.19 137.356 552.75 138.986C538.38 142.356 534.42 144.686 530.72 160.496H530.71C526.14 145.476 524.07 142.216 507.96 139.076C513.25 137.496 520.201 137.116 524.641 132.866C528.55 129.116 528.93 122.816 530.72 117.206Z" fill="#FE8602"/>
<path d="M341.31 445.636L317.83 445.696L317.74 417.996L290.48 417.846V394.246L317.75 394.066L317.76 365.856L341.23 365.986L341.37 394.046L368.49 394.076L368.51 417.866L341.31 417.916V445.636Z" fill="white"/>
<path d="M577.55 443.446C575.33 447.486 570.61 449.526 566.74 449.786C562.41 450.076 557.78 448.306 555.16 444.866C550.5 438.736 551 431.146 556.03 425.876C560.69 420.986 568.46 420.406 574 424.516C579.67 428.726 581.45 436.346 577.55 443.456V443.446Z" fill="#FE8602"/>
<path d="M530.82 418.727C524.37 417.117 521.06 411.417 520.99 406.047C520.9 399.827 524.55 394.517 529.89 392.427C535.66 390.177 542.23 391.697 546.02 396.857C549.81 402.017 549.61 408.267 546.46 413.147C543.41 417.867 537.47 420.387 530.83 418.727H530.82Z" fill="#FE8602"/>
<path d="M593.25 391.936C601.5 389.996 608.48 395.116 609.9 402.566C611.32 410.016 607.15 417.436 599.12 418.966C592.2 420.286 584.88 416.586 582.9 409.256C581.01 402.256 585.03 393.876 593.24 391.936H593.25Z" fill="#FE8602"/>
<path d="M561.28 362.056C569.22 359.406 576.71 363.556 578.89 370.576C581.14 377.836 577.67 385.716 570.27 388.086C562.87 390.456 555.74 387.296 552.98 380.216C550.33 373.416 553.17 364.756 561.29 362.046L561.28 362.056Z" fill="#FE8602"/>
<path d="M468.47 377.907L428.15 377.857C426.58 377.857 424.17 375.447 424.03 374.057C423.85 372.197 426.16 369.677 428.34 369.687L468.42 369.797C470.46 369.797 472.81 371.537 473.02 373.147C473.34 375.627 471.17 377.917 468.46 377.907H468.47Z" fill="white"/>
<path d="M271.54 161.576L273.81 147.826L274.03 146.546C261.42 149.406 250.86 159.106 250.85 172.606L250.82 219.826C252.97 232.966 262.53 242.136 276.03 245.556C274.26 237.676 271.52 229.406 271.52 220.626L271.54 161.586V161.576Z" fill="white"/>
<path d="M645.13 171.546C645.03 158.946 634.88 149.396 622.78 146.666L622.92 147.716L624.95 162.686L624.85 219.116C624.83 228.606 622.39 237.086 619.8 245.996C635.55 241.226 645.34 231.426 645.48 215.576L645.12 171.556L645.13 171.546Z" fill="white"/>
<path d="M614.95 145.876C606.04 64.9563 537.73 3.7863 456.51 0.166296C370.5 -3.6737 291.61 59.4063 280.9 146.166L280.37 202.656C280.23 233.836 288.38 264.376 305.19 290.316L321.44 287.866L330.28 288.346C343.18 288.996 354.22 292.776 365.41 298.556C399.68 316.256 418.08 319.456 457.88 318.796C483.16 318.376 505.8 312.366 527.35 300.576C539.82 293.756 552.81 289.176 566.89 288.236L575.43 288.016L591.51 290.336C608.39 264.026 615.85 233.126 615.72 201.666M593.19 216.426C584.85 241.846 567.06 262.026 544.09 275.286C535.05 280.506 525.2 284.696 514.85 287.966L513.92 288.256C479.05 299.086 438.64 299.566 404.47 293.436C397.21 292.136 390.11 290.426 383.24 288.336H383.27L381.76 287.896H381.79C340.15 274.806 307.31 246.816 298.91 200.956C291.5 160.536 303.39 119.646 330.89 89.0363C396.24 16.2763 518.13 20.4663 575.13 100.686C599.03 134.326 606.06 177.176 593.19 216.426Z" fill="white"/>
<path d="M281.28 655.516C287.81 653.976 293.34 658.036 294.47 663.936C295.59 669.786 292.3 675.706 285.93 676.926C280.45 677.976 274.66 675.046 273.09 669.236C271.52 663.426 274.77 657.056 281.28 655.526V655.516Z" fill="#FE8602"/>
<path d="M99.43 630.596C99.43 614.046 85.56 603.346 64.11 603.346H0L0.06 619.706H66.79C74.4 619.706 79.32 623.936 79.32 630.486C79.32 637.036 74.4 641.376 66.79 641.376H0V677.626H20.1V657.386H64.1C85.89 657.386 99.42 647.126 99.42 630.606L99.43 630.596Z" fill="white"/>
<path d="M149.27 654.546V604.066C149.27 603.666 148.95 603.346 148.55 603.346H129.77C129.37 603.346 129.05 603.666 129.05 604.066V671.906C129.05 675.066 131.61 677.626 134.77 677.626H194.98C195.2 677.626 195.41 677.526 195.55 677.346L206.96 662.426C207.32 661.956 206.98 661.276 206.39 661.276H156C152.29 661.276 149.28 658.266 149.28 654.556L149.27 654.546Z" fill="white"/>
<path d="M320.72 677.617H344.84L297.99 609.967C294.31 604.637 289.8 602.057 284.19 602.057C278.58 602.057 274.18 604.587 270.25 610.007L222.31 677.617H245.72L283.86 623.827L309.77 661.257" fill="white"/>
<path d="M422.32 603.346L392.89 636.506L362.74 603.346H337.15L382.36 652.866V677.616H402.58V652.886L446.58 603.346H422.32Z" fill="white"/>
<path d="M548.72 679.026C555.75 679.026 559.94 674.266 559.94 666.286V603.346H540.77V651.516L490.5 605.636C487.72 603.066 485.41 602.066 482.25 602.066C475.22 602.066 471.03 606.826 471.03 614.806V677.626H490.31V629.576L540.34 675.216C543.29 677.956 545.63 679.026 548.7 679.026H548.72Z" fill="white"/>
<path d="M611.65 661.256V647.076H663.21V633.766H611.65V619.696H663.45L663.33 603.346H591.43V677.616H663.79L663.69 661.256H611.65Z" fill="white"/>
<path d="M795.55 654.576C795.55 640.836 786.22 633.876 767.83 633.876H725.12C717.37 633.876 715.75 629.986 715.75 626.726C715.75 623.466 717.38 619.696 725.12 619.696H789.96L790.18 603.336H726.98C695.98 603.336 695.98 620.056 695.98 625.556C695.98 639.226 706.21 647.076 724.05 647.076H766.41C772.63 647.076 775.78 649.486 775.78 654.226C775.78 658.966 772.71 661.256 766.64 661.256H698.49L698.38 677.616H765.93C786.67 677.616 795.52 670.726 795.52 654.576H795.55Z" fill="white"/>
<path d="M900.48 603.346L822.75 603.346L822.7 619.696H850.59V677.616H870.69V619.696H900.4L900.48 603.346Z" fill="white"/>
</svg>
